<?xml version="1.0" encoding="UTF-8" standalone="no"?>
<svg
   xmlns:dc="http://purl.org/dc/elements/1.1/"
   xmlns:cc="http://creativecommons.org/ns#"
   xmlns:rdf="http://www.w3.org/1999/02/22-rdf-syntax-ns#"
   xmlns:svg="http://www.w3.org/2000/svg"
   xmlns="http://www.w3.org/2000/svg"
   width="18.062222mm"
   height="18.062222mm"
   viewBox="0 0 63.999998 63.999997"
   id="svg5147"
   version="1.1">
  <defs
     id="defs5149" />
  <metadata
     id="metadata5152">
    <rdf:RDF>
      <cc:Work
         rdf:about="">
        <dc:format>image/svg+xml</dc:format>
        <dc:type
           rdf:resource="http://purl.org/dc/dcmitype/StillImage" />
        <dc:title></dc:title>
      </cc:Work>
    </rdf:RDF>
  </metadata>
  <path
     id="path9464"
     style="color:#000000;clip-rule:nonzero;display:inline;overflow:visible;visibility:visible;opacity:1;isolation:auto;mix-blend-mode:normal;color-interpolation:sRGB;color-interpolation-filters:linearRGB;solid-color:#000000;solid-opacity:1;fill:none;fill-opacity:1;fill-rule:nonzero;stroke:#ffffff;stroke-width:1.5;stroke-linecap:round;stroke-linejoin:round;stroke-miterlimit:4;stroke-dasharray:none;stroke-dashoffset:0;stroke-opacity:1;color-rendering:auto;image-rendering:auto;shape-rendering:auto;text-rendering:auto;enable-background:accumulate"
     d="m 30.10705,18.06697 c -0.74597,0 -1.34651,1.04623 -1.34651,2.34585 l 0,0.8298 c -0.97704,0.20925 -1.9087,0.59181 -2.75087,1.12952 l -0.57989,-0.57989 c -0.91901,-0.91901 -2.08409,-1.2336 -2.61154,-0.70616 l -0.60622,0.60623 c -0.52743,0.52746 -0.21155,1.69248 0.70746,2.61149 l 0.58519,0.58522 c -0.54131,0.83973 -0.92788,1.76959 -1.14142,2.74559 l -0.82447,0 c -1.29959,0 -2.3459,0.60056 -2.3459,1.34652 l 0,0.85731 c 0,0.74599 1.04631,1.34655 2.3459,1.34655 l 0.82975,0 c 0.2091,0.97753 0.59166,1.90969 1.12954,2.7523 l -0.57859,0.57859 c -0.91901,0.91891 -1.23489,2.08401 -0.70746,2.6115 l 0.60622,0.60623 c 0.52745,0.52748 1.69252,0.21278 2.61154,-0.70616 l 0.58516,-0.58645 c 0.83972,0.5413 1.7696,0.92786 2.7456,1.14137 l 0,0.82444 c 0,1.2996 0.60054,2.34595 1.34651,2.34595 l 0.85747,0 c 0.74595,0 1.34649,-1.04635 1.34649,-2.34595 l 0,-0.82968 c 0.97752,-0.20916 1.90966,-0.59175 2.75224,-1.12967 l 0.57988,0.57999 c 0.91892,0.91894 2.0827,1.23364 2.61018,0.70616 l 0.60622,-0.60623 C 39.387,36.5999 39.07236,35.4348 38.15336,34.51589 l -0.58508,-0.58518 c 0.54084,-0.83986 0.92693,-1.76977 1.14002,-2.74571 l 0.82444,0 c 1.29966,0 2.34594,-0.60056 2.34594,-1.34655 l 0,-0.85731 c 0,-0.74596 -1.04628,-1.34652 -2.34594,-1.34652 l -0.82971,0 c -0.20909,-0.9775 -0.59164,-1.90963 -1.1295,-2.75221 l 0.57983,-0.57986 c 0.91899,-0.91902 1.23364,-2.08277 0.70617,-2.61023 l -0.60622,-0.60623 c -0.52748,-0.52744 -1.69126,-0.21285 -2.61018,0.70616 l -0.5865,0.58645 C 34.2169,21.83737 33.28702,21.4508 32.31101,21.23727 l 0,-0.82445 c 0,-1.29962 -0.60054,-2.34585 -1.34649,-2.34585 z m 0.42874,7.67015 c 2.02836,6e-5 3.67265,1.64438 3.67268,3.67274 -5e-5,2.02834 -1.64433,3.67264 -3.67268,3.6727 -2.02836,-5e-5 -3.67265,-1.64434 -3.6727,-3.6727 2e-5,-2.02837 1.64433,-3.67269 3.6727,-3.67274 z m -10.45764,27.92681 0,-8.8331 c -1.80629,-3.12854 -8.50693,-8.04075 -8.50693,-17.26669 0,-7.17476 3.60754,-16.6018 18.10542,-16.6018 15.69603,0 17.83971,7.81418 17.83971,14.68474 2.05893,4.95323 4.91249,11.8619 4.91249,11.8619 l -5.27194,0 0,5.4048 c 0,2.03689 -1.21122,5.51157 -4.438,5.51157 l -4.78791,0 0,5.23858" />
</svg>
