<svg viewBox="0 0 450 450" xmlns="http://www.w3.org/2000/svg">
    <circle id="cat1" r="48" cy="318.48267" cx="72.292542" fill="#f6f6f6" stroke="none" />
    <path stroke="#333" fill="none" stroke-width="1.5" stroke-linecap="round"
          d="m 72.51129,333.11243 c 0,0 3.90553,-2.73017 11.56343,-2.73017 7.65789,0 11.94631,2.49616 11.94631,2.49616 l 0,-31.82603 c 0,0 -4.365,-2.18415 -11.10395,-2.18415 -7.96421,0 -12.40579,2.49617 -12.40579,2.49617 m -23.947265,31.50823 0,-31.81515 c 0,0 4.444755,-2.1834 11.306855,-2.1834 8.10975,0 12.63248,2.49531 12.63248,2.49531 l 0,31.73719 c 0,0 -3.97689,-2.72924 -11.77471,-2.72924 -7.79784,0 -12.164625,2.49529 -12.164625,2.49529 z m -3.64856,-30.64547 0,34.07652 23.159545,0 c 0,0 1.63755,1.79351 4.36226,1.79351 2.72471,0 4.07278,-1.79351 4.07278,-1.79351 l 23.15955,0 0,-34.07652" />
    <circle id="cat2" r="48" cy="318.48267" cx="377.70746" fill="#f6f6f6" stroke="none" />
    <path stroke="#333" fill="none" stroke-width="1.5" stroke-linecap="round"
          d="m 395.08274,310.10359 0,-10.42897 c 0,-3.85487 -3.10341,-6.95829 -6.95829,-6.95829 l -20.52515,0 c -3.85487,0 -6.95829,3.10342 -6.95829,6.95829 l 0,10.56246 m -2.3915,-0.49823 a 5.6541396,5.6541396 0 0 0 -5.56889,5.73245 l 0,14.94311 a 5.6541396,5.6541396 0 0 0 5.65349,5.65349 l 2.32006,0 0,8.18037 1.9572,0 2.1922,-8.18037 25.94928,0 2.19221,8.18037 1.95719,0 0,-8.18037 2.17905,0 a 5.6541396,5.6541396 0 0 0 5.65349,-5.65349 l 0,-14.94311 a 5.6541396,5.6541396 0 1 0 -11.30697,0 l 0,9.28963 -27.44021,0 0,-9.28963 a 5.6541396,5.6541396 0 0 0 -5.7381,-5.73245 z" />
    <circle id="cat3" r="48" cx="225.00002" cy="53.985653" fill="#f6f6f6" stroke="none" />
    <path stroke="#333" fill="none" stroke-width="1.5" stroke-linecap="round"
          d="m 213.21459,33.53149 a 14.222764,14.208999 0 0 0 -14.2148,14.201 14.222764,14.208999 0 0 0 1.805,6.8983 c 5.8438,12.187 24.1904,23.6742 24.1904,23.6742 0,0 18.2635,-11.4309 24.155,-23.5841 a 14.222764,14.208999 0 0 0 1.8496,-6.9884 c 0,0 0,0 0,0 a 14.222764,14.208999 0 0 0 -14.2234,-14.201 14.222764,14.208999 0 0 0 -11.7812,6.2617 14.222764,14.208999 0 0 0 -11.7806,-6.2617 z" />
    <circle id="cat4" r="48" cy="95.239349" cx="111.65637" fill="#f6f6f6" stroke="none" />
    <path stroke="#333" fill="none" stroke-width="1.5" stroke-linecap="round"
          d="m 136.65564,115.50856 c 0,-12.78461 -3.56109,-23.07618 -16.3457,-23.07618 l -3.87305,0.0937 -2.74013,4.4961 4.24804,15.85156 -6.28721,5.28906 -6.28886,-5.28906 4.24609,-15.85156 -2.73848,-4.4961 -3.87304,-0.0937 C 90.22242,92.12301 86.65563,102.72395 86.65563,115.50856 M 126.13948,78.79908 A 14.483173,14.483173 0 0 1 111.65631,93.28226 14.483173,14.483173 0 0 1 97.17313,78.79908 14.483173,14.483173 0 0 1 111.65631,64.31591 14.483173,14.483173 0 0 1 126.13948,78.79908 Z" />
    <circle id="cat5" r="48" cx="164.6911" cy="396.01428" fill="#f6f6f6" stroke="none" />
    <path stroke="#333" fill="none" stroke-width="1.5" stroke-linecap="round"
          d="m 144.42841,398.83983 0,19.87466 14.70313,0 0,-13.74805 11.11718,0 0,13.74805 14.70313,0 0,-19.87466 M 164.67841,373.3141 a 3.7217109,3.7217109 0 0 0 -2.375,0.86719 l -23.23828,19.44336 a 3.7217109,3.7217109 0 1 0 4.77539,5.70703 l 20.84961,-17.44336 20.85156,17.44336 a 3.7217109,3.7217109 0 1 0 4.77539,-5.70703 l -7.47265,-6.25196 0,-12.77734 -7.48633,0 0,6.51367 -8.2793,-6.92773 a 3.7217109,3.7217109 0 0 0 -2.40039,-0.86719 z" />
    <circle id="cat6" r="48" cy="95.23938" cx="338.34363" fill="#f6f6f6" stroke="none" />
    <path stroke="#333" fill="none" stroke-width="1.5" stroke-linecap="round"
          d="m 362.38787,119.89414 -10.452,0 c 0,0 -5.1506,-8.2354 -7.0682,-8.395 -4.2046,-0.35 -13.1707,0.7724 -19.5524,-1.4003 -6.3943,-2.1766 -14.0863,-6.371 -14.9274,-12.2521 1.4019,-3.5707 4.2051,-10.9222 8.0595,-14.6329 5.8292,-5.6121 11.1428,-9.2417 11.7732,-10.4318 0.631,-1.1903 1.9626,-3.1507 2.4531,-3.5705 0.4907,-0.4203 5.4459,-2.942 8.3396,-2.5905 5.1859,0.6301 6.3072,5.3208 5.8167,7.9814 -0.4907,2.6603 -2.7331,4.691 -5.6064,3.9205 -1.8476,-0.4952 -4.4851,-1.2602 -5.3261,-0.4899 -0.4907,0.9801 -2.8868,8.5724 -5.4666,13.9325 3.9908,-0.2532 6.5135,0.6546 8.9704,2.3105 3.1617,-2.7634 7.1365,-3.527 11.9837,-3.2908 9.0917,0.4437 11.0029,4.6209 11.0029,4.6209" />
    <circle id="cat7" r="48" cx="51.347469" cy="199.69742" fill="#f6f6f6" stroke="none" />
    <path stroke="#333" fill="none" stroke-width="1.5" stroke-linecap="round"
          d="m 59.16728,202.16122 a 6.9366288,6.9366288 0 0 1 -6.93662,6.93663 6.9366288,6.9366288 0 0 1 -6.936625,-6.93663 6.9366288,6.9366288 0 0 1 6.936625,-6.93663 6.9366288,6.9366288 0 0 1 6.93662,6.93663 z m -12.013605,4.75064 c -4.46924,1.00477 -6.8958,5.45434 -6.8958,10.83231 l 0,2.08894 23.946225,0 0,-2.08894 c 0,-5.3766 -2.25014,-9.82609 -6.71677,-10.83231 -1.68766,1.54951 -2.96642,2.41071 -5.25753,2.41388 -2.28951,-0.004 -3.389635,-0.86545 -5.076125,-2.41388 z M 73.36016,193.86825 a 8.2457943,8.2457943 0 0 1 -8.24579,8.2458 8.2457943,8.2457943 0 0 1 -8.2458,-8.2458 8.2457943,8.2457943 0 0 1 8.2458,-8.24579 8.2457943,8.2457943 0 0 1 8.24579,8.24579 z m -9.24313,21.38133 15.23046,0 0,-2.48383 c 0,-6.88461 -1.81679,-12.49636 -8.17258,-13.08425 l 0,0.003 M 50.50296,189.52298 a 9.9612522,9.9612522 0 0 1 -9.961245,9.96125 9.9612522,9.9612522 0 0 1 -9.96126,-9.96125 9.9612522,9.9612522 0 0 1 9.96126,-9.96126 9.9612522,9.9612522 0 0 1 9.961245,9.96126 z m -17.269495,7.44344 0,-0.003 c -7.68867,0.70364 -9.88597,7.48581 -9.88597,15.80753 l 0,3.00065 16.91212,0" />
    <circle id="cat8" r="48" cx="285.30884" cy="396.01428" fill="#f6f6f6" stroke="none" />
    <path stroke="#333" fill="none" stroke-width="1.5" stroke-linecap="round"
          d="m 284.01709,389.12421 c 0,4.70269 -3.81229,8.20562 -8.51498,8.20562 -4.7027,0 -8.51499,-3.50292 -8.51499,-8.20562 0,-4.7027 3.81229,-8.51499 8.51499,-8.51499 4.7027,0 8.51498,3.81229 8.51498,8.51499 z m 9.02715,6.06671 -11.28115,0 0,0.002 c -1.79011,1.38987 -3.99051,2.14566 -6.25687,2.14738 -2.26281,0 -4.46081,-0.76158 -6.24795,-2.14962 l -0.002,4.8e-4 0,0.002 -2.26121,0 c -1.10667,-0.0274 -2.16933,0.4354 -2.90421,1.26344 l -9.79937,10.73915 c -0.97969,1.07386 -1.25295,2.61745 -0.70094,3.96217 l 0.9286,2.259 8.12527,0 -1.1942,-2.91304 3.65187,-4.00235 c 0,0.7222 0.16675,1.47162 0,2.20319 l 0,4.7122 20.75902,0 m 23.26534,-24.29271 a 8.5149851,8.5149851 0 0 1 -8.51499,8.51498 8.5149851,8.5149851 0 0 1 -8.51498,-8.51498 8.5149851,8.5149851 0 0 1 8.51498,-8.51499 8.5149851,8.5149851 0 0 1 8.51499,8.51499 z m -14.76223,6.06997 c -6.57254,0.60128 -8.45088,6.39962 -8.45088,13.5132 l 0,4.71203 29.3955,0 0,-4.71203 c 0,-7.10958 -1.87582,-12.90529 -8.43933,-13.51217 -1.79023,1.38976 -3.99166,2.14498 -6.2579,2.14681 -2.26293,0 -4.46025,-0.75991 -6.24739,-2.14784 z" />
    <circle id="cat9" r="48" cy="199.69742" cx="398.65253" fill="#f6f6f6" stroke="none" />
    <path stroke="#333" fill="none" stroke-width="1.5" stroke-linecap="round"
          d="m 405.09256,208.94126 c -4.60436,4.60436 -13.58285,2.76261 -13.58285,-9.55403 0,-12.31665 9.43893,-13.35263 14.15839,-8.63317 m -17.26633,6.4461 13.46774,0 m -13.46774,4.48226 12.08643,0 m 20.8104,-1.98501 a 22.646069,22.646069 0 0 1 -22.64607,22.64607 22.646069,22.646069 0 0 1 -22.64607,-22.64607 22.646069,22.646069 0 0 1 22.64607,-22.64606 22.646069,22.646069 0 0 1 22.64607,22.64606 z" />
</svg>
